# xmcd CD database file generated by OrangeCD 5.2
#
# Track frame offsets:
#	150
#	21183
#	39766
#	56166
#	76118
#	94514
#	117254
#	134837
#	150481
#	172510
#	192969
#	215145
#	236237
#	260295
#	287094
#	312624
#
# Disc length: 4490 seconds
#
# Revision: 0
# Processed by: cddbd v1.5.2PL0 Copyright (c) Steve Scherf et al.
# Submitted via: OrangeCD 5.2
#
DISCID=da118810
DTITLE=Various Artist - Try To Remember   Volume 5
DYEAR=2006
DGENRE=Dance
TTITLE0=Gladys Knight and The Pips - Try To Remember   The Way We Were
TTITLE1=The Dells - Oh What A Night
TTITLE2=Lou Rawls - You'll Never Find Another Love Like Mine
TTITLE3=The Commodores - Easy
TTITLE4=Julio Iglesias - All Of You
TTITLE5=Paul Jackson Jr. - Soulful Strut
TTITLE6=Barry White - Can't Get Enough Of Your Love, Babe
TTITLE7=Simply Red - If You Don't Know Me By Know
TTITLE8=Patti Labelle - On My Own (With Michael McDonald)
TTITLE9=Sade - Hang On To Your Love
TTITLE10=The Eagles - I Can't Tell You Why 
TTITLE11=Babyface - Whip Appeal
TTITLE12=Tina Turner - Let's Stay Together
TTITLE13=The Temptations - For Your Love    You Send Me (Medley)
TTITLE14=Ace Cannon - Honky Tonk
TTITLE15=Gerge Benson - Breezin'
EXTD=
EXTT0=
EXTT1=
EXTT2=
EXTT3=
EXTT4=
EXTT5=
EXTT6=
EXTT7=
EXTT8=
EXTT9=
EXTT10=
EXTT11=
EXTT12=
EXTT13=
EXTT14=
EXTT15=
PLAYORDER=
